<?xml version="1.0" standalone="no"?>
<!DOCTYPE svg PUBLIC "-//W3C//DTD SVG 20010904//EN"
 "http://www.w3.org/TR/2001/REC-SVG-20010904/DTD/svg10.dtd">
<svg version="1.0" xmlns="http://www.w3.org/2000/svg"
 width="1024.000000pt" height="1024.000000pt" viewBox="0 0 1024.000000 1024.000000"
 preserveAspectRatio="xMidYMid meet">

<g transform="translate(0.000000,1024.000000) scale(0.100000,-0.100000)"
fill="#000000" stroke="none">
<path d="M2759 8925 c-50 -27 -59 -66 -59 -249 l0 -166 -240 0 c-267 0 -284
-3 -320 -63 -19 -30 -20 -53 -20 -407 0 -337 2 -379 18 -410 27 -55 69 -70
193 -70 l106 0 7 -47 c3 -27 181 -1411 396 -3078 214 -1667 392 -3045 396
-3064 3 -20 20 -49 39 -68 l33 -33 1816 0 1816 0 36 33 36 32 399 3095 c219
1702 399 3103 399 3113 0 15 12 17 105 17 123 0 165 13 195 62 20 32 20 46 18
425 l-3 393 -33 32 -32 33 -255 3 -255 3 0 170 c0 188 -7 217 -60 244 -26 13
-296 15 -2367 15 -2003 -1 -2342 -3 -2364 -15z m4551 -320 l0 -95 -2185 0
-2185 0 0 95 0 95 2185 0 2185 0 0 -95z m578 -567 l-3 -233 -2760 0 -2760 0
-3 233 -2 232 2765 0 2765 0 -2 -232z m-318 -483 c0 -2 -27 -214 -60 -469 -33
-256 -60 -470 -60 -475 0 -8 -691 -11 -2325 -11 -2046 0 -2325 2 -2325 15 0
15 -105 840 -116 908 l-6 37 2446 0 c1345 0 2446 -2 2446 -5z m-186 -1447
c-18 -139 -102 -787 -186 -1440 l-153 -1188 -1920 0 -1920 0 -183 1428 c-101
785 -183 1433 -183 1440 1 9 466 12 2289 12 l2288 0 -32 -252z m-374 -2886 c0
-19 -206 -1626 -215 -1679 l-6 -33 -1664 0 -1664 0 -6 33 c-8 48 -215 1667
-215 1683 0 12 285 14 1885 14 1795 0 1885 -1 1885 -18z"/>
<path d="M4840 5954 c-288 -39 -562 -137 -775 -276 -103 -67 -263 -222 -324
-314 -180 -269 -187 -575 -19 -859 53 -89 226 -264 332 -335 100 -66 293 -159
415 -199 385 -126 846 -134 1242 -22 262 74 484 197 653 360 136 133 208 245
258 401 19 63 23 96 23 210 0 114 -4 147 -23 210 -159 504 -770 844 -1510 839
-92 -1 -214 -7 -272 -15z m625 -253 c349 -65 646 -217 800 -409 49 -61 120
-197 130 -248 6 -29 3 -32 -42 -52 -86 -36 -241 -82 -336 -98 -72 -13 -132
-15 -277 -11 -246 8 -363 35 -684 159 -328 126 -489 162 -736 162 -167 0 -283
-15 -381 -49 -23 -8 -44 -14 -45 -12 -10 10 81 141 142 202 194 197 505 330
874 375 125 15 429 5 555 -19z m-924 -757 c138 -25 265 -66 493 -156 273 -108
494 -152 761 -152 198 0 316 17 492 73 l92 28 -26 -51 c-81 -161 -221 -291
-428 -396 -625 -318 -1544 -198 -1931 252 -58 68 -91 124 -121 205 -37 101
-35 106 50 141 66 28 154 54 217 65 66 11 323 6 401 -9z"/>
</g>
</svg>
